<svg height="512pt" viewBox="-61 0 512 512" width="512pt" xmlns="http://www.w3.org/2000/svg"><path d="m225 0-70 459.5 235-52.5v-407zm0 0" fill="#942b21"/><path d="m52.5 0c-28.949219 0-52.5 23.550781-52.5 52.5v407h125l-50-459.5zm0 0" fill="#942b21"/><path d="m75 0h150v459.5h-150zm0 0" fill="#af3526"/><path d="m390 437-195-15v75l195-15zm0 0" fill="#bcf7fc"/><path d="m52.5 422c-20.710938 0-37.5 16.789062-37.5 37.5s16.789062 37.5 37.5 37.5h172.5v-75zm0 0" fill="#fff"/><path d="m390 512v-30h-165l-20 15 20 15zm0 0" fill="#af3526"/><path d="m390 437v-30h-165l-20 15 20 15zm0 0" fill="#af3526"/><path d="m30 459.5c0-12.40625 10.09375-22.5 22.5-22.5h172.5v-30h-172.5c-28.949219 0-52.5 23.550781-52.5 52.5s23.550781 52.5 52.5 52.5h172.5v-30h-172.5c-12.40625 0-22.5-10.09375-22.5-22.5zm0 0" fill="#d7442d"/><path d="m255 120v-60h-30l-20 143.5 20 143.5h30v-167h60v-60zm0 0" fill="#ffa725"/><path d="m195 60v60h-60v60h60v167h30v-287zm0 0" fill="#ffbe46"/></svg>